<?xml version="1.0" encoding="utf-8"?>
<!-- Generator: Adobe Illustrator 24.3.0, SVG Export Plug-In . SVG Version: 6.00 Build 0)  -->
<svg version="1.1" id="Layer_1" xmlns="http://www.w3.org/2000/svg" xmlns:xlink="http://www.w3.org/1999/xlink" x="0px" y="0px"
	 viewBox="0 0 2160 1080" style="enable-background:new 0 0 2160 1080;" xml:space="preserve">
<style type="text/css">
	.st0{fill:#2B388F;}
</style>
<g>
	<g>
		<g>
			<path class="st0" d="M1104.4,524.7l-26.18,34.65h7.8l-0.34,44.81c-0.11,8.86,1.99,15.39,6.3,19.59
				c4.32,4.21,10.96,6.31,19.94,6.31c5.45,0,9.88-0.63,13.29-1.88v-16.02c-2.96,0.91-6.19,1.36-9.71,1.36c-4.43,0-7.5-0.99-9.2-2.98
				c-1.7-1.99-2.56-5.43-2.56-10.31l0.34-40.89l21.13,0v-16.7h-20.96L1104.4,524.7z"/>
		</g>
		<g>
			<path class="st0" d="M1180.76,540.77c-12.84,0-23.46,4.21-31.86,12.61c-8.29,8.3-12.44,19.08-12.44,32.38s4.15,24.09,12.44,32.38
				c8.4,8.41,19.03,12.61,31.86,12.61c12.84,0,23.46-4.2,31.86-12.61c8.4-8.4,12.61-19.19,12.61-32.38
				c0-13.18-4.21-23.96-12.61-32.38C1204.21,544.98,1193.59,540.77,1180.76,540.77z M1199.33,606.03
				c-4.66,5.34-10.79,8.01-18.4,8.01c-7.61,0-13.8-2.67-18.57-8.01c-4.77-5.22-7.16-11.98-7.16-20.28c0-8.29,2.39-15.05,7.16-20.28
				c4.77-5.34,10.96-8.01,18.57-8.01c7.61,0,13.74,2.67,18.4,8.01c4.77,5.23,7.16,11.99,7.16,20.28
				C1206.48,594.05,1204.1,600.81,1199.33,606.03z"/>
		</g>
		<g>
			<path class="st0" d="M1274.3,540.77c-10,0-18.18,2.9-24.54,8.69c-6.25,5.79-9.37,13.18-9.37,22.15c0,6.59,1.87,12.5,5.62,17.72
				c-5.91,4.54-8.86,10.51-8.86,17.89c0,7.84,3.63,13.86,10.9,18.06c-6.13,3.52-9.2,8.69-9.2,15.5c0,8.52,3.29,15.08,9.88,19.68
				c6.59,4.6,16.07,6.9,28.45,6.9c11.36,0,20.33-2.61,26.92-7.84c6.59-5.22,9.88-12.44,9.88-21.64c0-7.61-2.39-13.52-7.16-17.72
				c-4.77-4.2-11.59-6.31-20.45-6.31h-21.64c-3.07,0-5.48-0.71-7.24-2.13c-1.76-1.42-2.64-3.38-2.64-5.88
				c0-3.07,0.91-5.51,2.72-7.33c5.11,2.27,10.68,3.41,16.7,3.41c9.77,0,17.78-2.84,24.03-8.52c6.13-5.79,9.2-13.06,9.2-21.81
				c0-4.43-0.97-8.86-2.9-13.29h13.8v-15.68h-31.86C1282.48,541.4,1278.39,540.77,1274.3,540.77z M1259.65,631.76
				c1.93-1.93,4.54-3.01,7.84-3.24h14.83c9.31,0,13.97,3.47,13.97,10.4c0,9.2-6.36,13.8-19.08,13.8c-13.63,0-20.45-4.37-20.45-13.12
				C1256.75,636.31,1257.71,633.7,1259.65,631.76z M1285.55,582.95c-2.96,3.01-6.76,4.52-11.42,4.52c-4.77,0-8.63-1.5-11.59-4.52
				c-2.96-3.01-4.43-6.78-4.43-11.33c0-4.77,1.45-8.63,4.35-11.59c2.9-2.95,6.79-4.43,11.67-4.43c4.77,0,8.6,1.48,11.5,4.43
				c2.9,2.96,4.35,6.82,4.35,11.59C1289.98,576.16,1288.5,579.94,1285.55,582.95z"/>
		</g>
		<g>
			<path class="st0" d="M1366.48,540.77c-12.61,0-22.78,4.26-30.5,12.78c-7.73,8.41-11.59,19.2-11.59,32.37
				c0,13.41,3.86,24.26,11.59,32.54c7.84,8.18,18,12.27,30.5,12.27c9.88,0,18.15-2.44,24.79-7.33c6.65-4.88,11.33-11.87,14.06-20.96
				h-17.72c-3.3,8.18-10.17,12.27-20.62,12.27c-6.7,0-12.24-2.05-16.61-6.13c-4.37-4.09-6.79-9.6-7.24-16.53l62.87,0v-6.99
				c0-14.09-3.58-24.99-10.73-32.71C1388.12,544.64,1378.52,540.77,1366.48,540.77z M1343.31,577.92c0.57-6.36,2.95-11.5,7.16-15.42
				c4.2-3.92,9.48-5.88,15.85-5.88c6.36,0,11.5,1.93,15.42,5.79c3.92,3.87,5.93,9.03,6.05,15.51H1343.31z"/>
		</g>
		<g>
			<path class="st0" d="M1448.95,521.52h-18.23l-0.17,21.13h-15.16l0,16.7h15.16l-0.34,44.81c-0.11,8.86,1.99,15.39,6.3,19.59
				c4.32,4.21,10.96,6.31,19.94,6.31c5.45,0,9.88-0.63,13.29-1.88v-16.02c-2.95,0.91-6.19,1.36-9.71,1.36c-4.43,0-7.5-0.99-9.2-2.98
				c-1.7-1.99-2.56-5.43-2.56-10.31l0.34-40.89h21.13v-16.7h-20.96L1448.95,521.52z"/>
		</g>
		<g>
			<path class="st0" d="M1528.35,540.77c-10.68,0-18.23,3.98-22.66,11.93v-48.22l-18.06,0l0,124.39h18.06l0-45.84
				c0-7.72,1.62-13.75,4.86-18.06c3.24-4.32,7.52-6.48,12.86-6.48c4.66,0,8.26,1.53,10.82,4.6c2.55,3.07,3.83,7.56,3.83,13.46v52.31
				l18.23,0v-55.89c0-9.88-2.44-17.72-7.33-23.51C1544.08,543.67,1537.21,540.77,1528.35,540.77z"/>
		</g>
		<g>
			<path class="st0" d="M1615.25,540.77c-12.61,0-22.78,4.26-30.5,12.78c-7.72,8.41-11.59,19.2-11.59,32.37
				c0,13.41,3.86,24.26,11.59,32.54c7.84,8.18,18,12.27,30.5,12.27c9.88,0,18.15-2.44,24.79-7.33c6.65-4.88,11.33-11.87,14.06-20.96
				h-17.72c-3.29,8.18-10.17,12.27-20.62,12.27c-6.7,0-12.24-2.05-16.61-6.13c-4.38-4.09-6.79-9.6-7.24-16.53h62.87v-6.99
				c0-14.09-3.58-24.99-10.74-32.71C1636.89,544.64,1627.29,540.77,1615.25,540.77z M1592.08,577.92c0.57-6.36,2.95-11.5,7.16-15.42
				c4.2-3.92,9.48-5.88,15.85-5.88s11.5,1.93,15.42,5.79c3.92,3.87,5.93,9.03,6.05,15.51H1592.08z"/>
		</g>
		<g>
			<path class="st0" d="M1701.64,546.06c-4.32,2.84-7.33,6.59-9.03,11.25l-1.53-14.65h-15.85v86.22h18.06v-44.81
				c0.23-8.18,2.72-14.25,7.49-18.23c4.32-3.86,10.05-5.8,17.21-5.8V541.8C1711.41,541.8,1705.96,543.22,1701.64,546.06z"/>
		</g>
	</g>
	<g>
		<g>
			<path class="st0" d="M479.84,472.38c-8.52,0-15.42,2.58-20.7,7.75c-5.28,5.17-7.92,11.79-7.92,19.85h7.67
				c0-6.59,1.9-11.67,5.71-15.25c3.8-3.58,8.95-5.37,15.42-5.37c13.63,0,20.45,7.67,20.45,23v6.99l-28.97,6.3
				C456.5,519.06,449,527.01,449,539.51c0,6.48,2.13,11.73,6.39,15.76c4.26,4.04,9.91,6.05,16.95,6.05c6.25,0,11.84-1.39,16.78-4.17
				c4.94-2.78,8.72-6.33,11.33-10.65v12.95h7.5v-57.08c0-9.65-2.41-17.07-7.24-22.24C495.88,474.96,488.93,472.38,479.84,472.38z
				 M500.46,526.73c0,6.59-2.1,12.5-6.3,17.72c-5.57,6.59-12.84,9.88-21.81,9.88c-5,0-8.86-1.33-11.59-4
				c-2.73-2.67-4.09-6.28-4.09-10.82c0-8.74,5.39-14.42,16.19-17.04l27.6-6.3V526.73z"/>
		</g>
		<g>
			<path class="st0" d="M619.39,472.38c-6.02,0-11.45,1.73-16.27,5.2c-4.83,3.47-8.38,7.75-10.65,12.86
				c-4.09-12.04-12.61-18.06-25.56-18.06c-5.91,0-11.19,1.65-15.85,4.94c-4.54,3.18-7.5,6.76-8.86,10.74v-13.8h-7.33l0,85.2h7.33
				l0-48.9c0-9.31,2.27-16.84,6.82-22.58c4.54-5.73,10.39-8.6,17.55-8.6c6.59,0,11.7,2.16,15.33,6.48
				c3.63,4.32,5.45,10.51,5.45,18.57l0,55.04h7.33l0-50.27c0.23-8.86,2.61-16.04,7.16-21.55c4.54-5.51,10.28-8.26,17.21-8.26
				c6.59,0,11.7,2.16,15.34,6.48c3.63,4.32,5.45,10.51,5.45,18.57v55.04h7.33v-54.87c0-9.77-2.44-17.58-7.33-23.43
				C634.95,475.3,628.14,472.38,619.39,472.38z"/>
		</g>
		<g>
			<path class="st0" d="M715.15,472.38c-7.27,0-13.92,1.99-19.93,5.96c-6.02,3.98-9.94,8.01-11.76,12.1v-16.19h-7.33v121.83h7.33
				v-53.16c1.82,4.66,5.62,8.92,11.42,12.78c5.57,3.75,12.21,5.62,19.94,5.62c12.27,0,21.98-4.15,29.14-12.44
				c7.27-8.29,10.9-18.97,10.9-32.04c0-12.95-3.58-23.63-10.73-32.03C737.19,476.52,727.53,472.38,715.15,472.38z M738.33,543.77
				c-6.02,7.04-13.86,10.57-23.51,10.57c-8.75,0-16.19-3.12-22.32-9.37c-6.02-6.36-9.03-14.99-9.03-25.9v-5.96
				c0-10.45,3.07-18.69,9.2-24.71c6.25-6.02,13.74-9.03,22.49-9.03c9.88,0,17.72,3.52,23.51,10.56c5.79,7.04,8.69,16.02,8.69,26.92
				C747.36,527.75,744.35,536.73,738.33,543.77z"/>
		</g>
		<g>
			<rect x="776.32" y="435.06" class="st0" width="7.33" height="124.39"/>
		</g>
		<g>
			<rect x="813.63" y="474.25" class="st0" width="7.33" height="85.2"/>
		</g>
		<g>
			<path class="st0" d="M817.38,439.66c-1.82,0-3.41,0.68-4.77,2.05c-1.36,1.25-2.05,2.84-2.05,4.77c0,1.93,0.68,3.58,2.05,4.94
				c1.36,1.25,2.95,1.88,4.77,1.88c1.82,0,3.41-0.62,4.77-1.88c1.36-1.36,2.05-3.01,2.05-4.94c0-1.93-0.68-3.52-2.05-4.77
				C820.79,440.34,819.2,439.66,817.38,439.66z"/>
		</g>
		<g>
			<rect x="901.56" y="474.25" class="st0" width="7.33" height="85.2"/>
		</g>
		<g>
			<path class="st0" d="M860.41,440.25c-3.35,4.15-5.03,9.74-5.03,16.79v17.21h-18.4v6.65h18.4l0,78.55h7.33l0-78.55h23v-6.65l-23,0
				v-17.21c0-10.68,3.75-16.02,11.25-16.02c3.97,0,7.89,0.79,11.76,2.39v-6.99c-3.41-1.59-7.33-2.39-11.76-2.39
				C868.27,434.03,863.76,436.11,860.41,440.25z"/>
		</g>
		<g>
			<path class="st0" d="M905.31,439.66c-1.93,0-3.58,0.68-4.94,2.05c-1.25,1.25-1.87,2.84-1.87,4.77c0,1.93,0.62,3.58,1.87,4.94
				c1.36,1.25,3.01,1.88,4.94,1.88c1.93,0,3.52-0.62,4.77-1.88c1.36-1.36,2.05-3.01,2.05-4.94c0-1.93-0.68-3.52-2.05-4.77
				C908.82,440.34,907.23,439.66,905.31,439.66z"/>
		</g>
		<g>
			<path class="st0" d="M1006.86,536.44h-8.01c-2.16,5.68-5.71,10.08-10.65,13.2c-4.94,3.13-10.99,4.69-18.15,4.69
				c-8.97,0-16.53-3.18-22.66-9.54c-6.02-6.36-9.2-14.76-9.54-25.22h70.2v-5.11c0-13.29-3.49-23.63-10.48-31.01
				c-6.99-7.38-16.44-11.07-28.37-11.07c-11.59,0-20.96,4.2-28.11,12.61c-7.16,8.29-10.73,18.91-10.73,31.86
				c0,13.18,3.69,23.91,11.07,32.21c7.5,8.18,17.04,12.27,28.63,12.27c9.31,0,17.15-2.16,23.51-6.48
				C999.93,550.53,1004.36,544.4,1006.86,536.44z M947.22,488.73c5.79-6.25,13.12-9.37,21.98-9.37c9.65,0,17.3,2.95,22.92,8.86
				c5.62,5.91,8.43,14.09,8.43,24.54h-62.7C938.3,502.99,941.43,494.98,947.22,488.73z"/>
		</g>
		<g>
			<path class="st0" d="M1041.45,543.94c-5.79-6.93-8.69-15.96-8.69-27.09c0-11.02,2.95-19.99,8.86-26.92
				c6.02-7.04,13.91-10.56,23.68-10.56c8.75,0,16.13,3.18,22.15,9.54c3.83,3.98,6.47,8.82,7.91,14.53l8.62-11.41v-56.97h-7.33v55.72
				c-1.82-4.66-5.62-8.92-11.42-12.78c-5.68-3.75-12.33-5.62-19.94-5.62c-12.16,0-21.92,4.2-29.31,12.61
				c-7.16,8.29-10.73,18.91-10.73,31.86c0,12.95,3.52,23.63,10.56,32.04c4.61,5.34,10.29,8.93,17.02,10.84l4.64-6.15
				C1051.04,552.21,1045.69,549.02,1041.45,543.94z"/>
		</g>
	</g>
</g>
</svg>
